<svg width="390" height="20" viewBox="0 0 390 20" fill="none" xmlns="http://www.w3.org/2000/svg">
<line x1="0.5" y1="9.74991" x2="176.5" y2="9.74989" stroke="url(#paint0_linear_1_42)" stroke-linecap="round"/>
<path d="M191.64 8.70191C192.6 8.70191 193.363 8.83524 193.928 9.10191C194.504 9.36857 194.915 9.80591 195.16 10.4139C195.416 11.0219 195.544 11.8272 195.544 12.8299C195.544 13.8326 195.416 14.6379 195.16 15.2459C194.915 15.8432 194.504 16.2806 193.928 16.5579C193.363 16.8246 192.6 16.9579 191.64 16.9579C190.701 16.9579 189.944 16.8246 189.368 16.5579C188.803 16.2806 188.392 15.8432 188.136 15.2459C187.88 14.6379 187.752 13.8326 187.752 12.8299C187.752 11.8272 187.88 11.0219 188.136 10.4139C188.392 9.80591 188.803 9.36857 189.368 9.10191C189.944 8.83524 190.701 8.70191 191.64 8.70191ZM191.64 10.1739C191.171 10.1739 190.797 10.2539 190.52 10.4139C190.253 10.5632 190.061 10.8299 189.944 11.2139C189.827 11.5979 189.768 12.1366 189.768 12.8299C189.768 13.5232 189.827 14.0619 189.944 14.4459C190.061 14.8299 190.253 15.0966 190.52 15.2459C190.797 15.3952 191.171 15.4699 191.64 15.4699C192.12 15.4699 192.499 15.3952 192.776 15.2459C193.053 15.0966 193.245 14.8299 193.352 14.4459C193.469 14.0619 193.528 13.5232 193.528 12.8299C193.528 12.1366 193.469 11.5979 193.352 11.2139C193.245 10.8299 193.053 10.5632 192.776 10.4139C192.499 10.2539 192.12 10.1739 191.64 10.1739ZM198.873 8.89391L199.129 10.4299L199.305 10.6539V16.7499H197.369V8.89391H198.873ZM202.713 8.70191L202.521 10.4939H201.961C201.545 10.4939 201.124 10.5632 200.697 10.7019C200.271 10.8406 199.737 11.0486 199.097 11.3259L198.969 10.1899C199.524 9.72057 200.089 9.35791 200.665 9.10191C201.241 8.83524 201.796 8.70191 202.329 8.70191H202.713Z" fill="#4F4E4E"/>
<line x1="0.5" y1="-0.5" x2="176.5" y2="-0.5" transform="matrix(-1 -8.74228e-08 -8.74228e-08 1 390 10.2499)" stroke="url(#paint1_linear_1_42)" stroke-linecap="round"/>
<defs>
<linearGradient id="paint0_linear_1_42" x1="-23.895" y1="10.2499" x2="309.75" y2="10.2498" gradientUnits="userSpaceOnUse">
<stop stop-color="#4F4E4E" stop-opacity="0"/>
<stop offset="1" stop-color="#4F4E4E"/>
</linearGradient>
<linearGradient id="paint1_linear_1_42" x1="-23.895" y1="1.2415e-06" x2="309.75" y2="-5.30676e-05" gradientUnits="userSpaceOnUse">
<stop stop-color="#4F4E4E" stop-opacity="0"/>
<stop offset="1" stop-color="#4F4E4E"/>
</linearGradient>
</defs>
</svg>
