<svg width="17" height="18" viewBox="0 0 17 18" fill="none" xmlns="http://www.w3.org/2000/svg">
<g clip-path="url(#clip0_1_177)">
<path d="M14.3264 11.8119C14.3264 11.5555 14.2367 11.3376 14.0572 11.1581L12.0571 9.15801C11.8777 8.97852 11.6597 8.88877 11.4033 8.88877C11.134 8.88877 10.9033 8.99134 10.711 9.19647C10.7302 9.21571 10.7911 9.275 10.8937 9.37436C10.9962 9.47372 11.0651 9.54264 11.1004 9.5811C11.1356 9.61956 11.1837 9.68046 11.2446 9.7638C11.3055 9.84713 11.3472 9.92886 11.3696 10.009C11.3921 10.0891 11.4033 10.1773 11.4033 10.2734C11.4033 10.5298 11.3135 10.7478 11.134 10.9273C10.9546 11.1068 10.7366 11.1965 10.4802 11.1965C10.384 11.1965 10.2959 11.1853 10.2158 11.1629C10.1356 11.1404 10.0539 11.0988 9.97055 11.0379C9.88722 10.977 9.82632 10.9289 9.78785 10.8936C9.74939 10.8584 9.68048 10.7895 9.58112 10.6869C9.48176 10.5843 9.42246 10.5234 9.40323 10.5042C9.19168 10.7029 9.08591 10.9369 9.08591 11.2061C9.08591 11.4626 9.17566 11.6805 9.35515 11.86L11.336 13.8504C11.5091 14.0235 11.727 14.1101 11.9898 14.1101C12.2463 14.1101 12.4642 14.0267 12.6437 13.8601L14.0572 12.4562C14.2367 12.2767 14.3264 12.0619 14.3264 11.8119ZM7.56664 5.0329C7.56664 4.77649 7.4769 4.55853 7.2974 4.37904L5.31658 2.3886C5.13709 2.20911 4.91914 2.11937 4.66272 2.11937C4.41271 2.11937 4.19476 2.20591 4.00886 2.37899L2.59536 3.78287C2.41587 3.96236 2.32612 4.17711 2.32612 4.42712C2.32612 4.68354 2.41587 4.90149 2.59536 5.08098L4.59541 7.08103C4.76849 7.25412 4.98645 7.34066 5.24927 7.34066C5.51851 7.34066 5.74929 7.24129 5.9416 7.04257C5.92237 7.02334 5.86147 6.96404 5.7589 6.86468C5.65634 6.76532 5.58742 6.69641 5.55217 6.65795C5.51691 6.61948 5.46883 6.55858 5.40793 6.47525C5.34703 6.39191 5.30537 6.31018 5.28293 6.23005C5.26049 6.14992 5.24927 6.06178 5.24927 5.96562C5.24927 5.7092 5.33902 5.49125 5.51851 5.31176C5.698 5.13227 5.91596 5.04252 6.17238 5.04252C6.26853 5.04252 6.35668 5.05374 6.43681 5.07617C6.51694 5.09861 6.59867 5.14028 6.682 5.20118C6.76534 5.26208 6.82624 5.31015 6.8647 5.34541C6.90316 5.38067 6.97208 5.44958 7.07144 5.55215C7.1708 5.65471 7.2301 5.71561 7.24933 5.73485C7.46087 5.53612 7.56664 5.30214 7.56664 5.0329ZM15.3649 9.85034C15.9034 10.3888 16.1726 11.0427 16.1726 11.8119C16.1726 12.5812 15.9002 13.2318 15.3553 13.7639L13.9418 15.1678C13.4097 15.6998 12.7591 15.9659 11.9898 15.9659C11.2142 15.9659 10.5603 15.6934 10.0282 15.1486L8.04742 13.1581C7.51536 12.6261 7.24933 11.9754 7.24933 11.2061C7.24933 10.4177 7.53139 9.74777 8.0955 9.19647L7.24933 8.3503C6.69803 8.91442 6.03135 9.19647 5.24927 9.19647C4.48002 9.19647 3.82616 8.92724 3.28768 8.38876L1.28763 6.38871C0.749157 5.85023 0.479919 5.19637 0.479919 4.42712C0.479919 3.65787 0.752362 3.00721 1.29725 2.47514L2.71075 1.07126C3.24281 0.539197 3.89347 0.273164 4.66272 0.273164C5.43838 0.273164 6.09225 0.545608 6.62431 1.09049L8.60513 3.08093C9.1372 3.613 9.40323 4.26365 9.40323 5.0329C9.40323 5.82139 9.12117 6.49127 8.55705 7.04257L9.40323 7.88875C9.95453 7.32463 10.6212 7.04257 11.4033 7.04257C12.1725 7.04257 12.8264 7.31181 13.3649 7.85028L15.3649 9.85034Z" fill="white"/>
</g>
<defs>
<clipPath id="clip0_1_177">
<rect width="16.0135" height="17.2312" fill="white" transform="matrix(1 0 0 -1 0.473267 17.3504)"/>
</clipPath>
</defs>
</svg>
