<svg width="9" height="16" viewBox="0 0 9 16" fill="none" xmlns="http://www.w3.org/2000/svg">
<g clip-path="url(#clip0_1_764)">
<path d="M5.80542 7.37454C5.80542 7.37454 5.91005 7.26991 6.11931 7.06065C6.32858 6.85138 6.43321 6.45099 6.43321 5.85947C6.43321 5.26795 6.22395 4.76293 5.80542 4.3444C5.38689 3.92588 4.88187 3.71661 4.29035 3.71661C3.69883 3.71661 3.19381 3.92588 2.77529 4.3444C2.35676 4.76293 2.1475 5.26795 2.1475 5.85947C2.1475 6.45099 2.35676 6.95601 2.77529 7.37454C3.19381 7.79307 3.69883 8.00233 4.29035 8.00233C4.88187 8.00233 5.38689 7.79307 5.80542 7.37454ZM8.57607 5.85947C8.57607 6.46773 8.48399 6.96717 8.29984 7.3578L5.25296 13.8366C5.16368 14.0208 5.03115 14.1658 4.85536 14.2719C4.67958 14.3779 4.49125 14.4309 4.29035 14.4309C4.08946 14.4309 3.90112 14.3779 3.72534 14.2719C3.54956 14.1658 3.41982 14.0208 3.33611 13.8366L0.280866 7.3578C0.0967146 6.96717 0.00463867 6.46773 0.00463867 5.85947C0.00463867 4.67644 0.423165 3.66639 1.26022 2.82934C2.09727 1.99228 3.10732 1.57375 4.29035 1.57375C5.47339 1.57375 6.48343 1.99228 7.32049 2.82934C8.15754 3.66639 8.57607 4.67644 8.57607 5.85947Z" fill="white" fill-opacity="0.85"/>
</g>
<defs>
<clipPath id="clip0_1_764">
<rect width="8.58" height="15" fill="white" transform="matrix(1 0 0 -1 0 15.5)"/>
</clipPath>
</defs>
</svg>
