<svg width="17" height="20" viewBox="0 0 17 20" fill="none" xmlns="http://www.w3.org/2000/svg">
<path d="M0.958496 6.72146H2.9585V0.499237H4.9585L8.3785 6.72146H12.9585V0.499237H14.9585V6.72146H16.9585V8.79553H14.9585V10.8696H16.9585V12.9437H14.9585V19.1659H12.9585L9.5285 12.9437H4.9585V19.1659H2.9585V12.9437H0.958496V10.8696H2.9585V8.79553H0.958496V6.72146ZM4.9585 6.72146H6.0885L4.9585 4.6785V6.72146ZM4.9585 8.79553V10.8696H8.3785L7.2385 8.79553H4.9585ZM12.9585 15.0178V12.9437H11.8085L12.9585 15.0178ZM9.5185 8.79553L10.6685 10.8696H12.9585V8.79553H9.5185Z" fill="#373737"/>
</svg>
