<svg width="19" height="16" viewBox="0 0 19 16" fill="none" xmlns="http://www.w3.org/2000/svg">
<path d="M5.69744 3.35009C5.69744 3.35009 5.78719 3.43984 5.96668 3.61933C6.14617 3.79882 6.23592 4.14498 6.23592 4.65782C6.23592 5.17065 6.05642 5.60656 5.69744 5.96554C5.33846 6.32453 4.90255 6.50402 4.38971 6.50402C3.87688 6.50402 3.44097 6.32453 3.08199 5.96554C2.723 5.60656 2.54351 5.17065 2.54351 4.65782C2.54351 4.14498 2.723 3.70908 3.08199 3.35009C3.44097 2.99111 3.87688 2.81162 4.38971 2.81162C4.90255 2.81162 5.33846 2.99111 5.69744 3.35009ZM16.0823 8.35022V12.658H2.54351V10.8118L5.62051 7.73482L7.15902 9.27332L12.0822 4.35012L16.0823 8.35022ZM17.0054 1.58082H1.62041C1.53708 1.58082 1.46496 1.61127 1.40406 1.67216C1.34316 1.73306 1.31271 1.80518 1.31271 1.88852V13.5811C1.31271 13.6645 1.34316 13.7366 1.40406 13.7975C1.46496 13.8584 1.53708 13.8888 1.62041 13.8888H17.0054C17.0888 13.8888 17.1609 13.8584 17.2218 13.7975C17.2827 13.7366 17.3131 13.6645 17.3131 13.5811V1.88852C17.3131 1.80518 17.2827 1.73306 17.2218 1.67216C17.1609 1.61127 17.0888 1.58082 17.0054 1.58082ZM18.5439 1.88852V13.5811C18.5439 14.0042 18.3933 14.3664 18.092 14.6677C17.7907 14.969 17.4285 15.1196 17.0054 15.1196H1.62041C1.19732 15.1196 0.835134 14.969 0.533844 14.6677C0.232554 14.3664 0.0819092 14.0042 0.0819092 13.5811V1.88852C0.0819092 1.46543 0.232554 1.10324 0.533844 0.80195C0.835134 0.500659 1.19732 0.350014 1.62041 0.350014H17.0054C17.4285 0.350014 17.7907 0.500659 18.092 0.80195C18.3933 1.10324 18.5439 1.46543 18.5439 1.88852Z" fill="white"/>
</svg>
