<svg width="19" height="13" viewBox="0 0 19 13" fill="none" xmlns="http://www.w3.org/2000/svg">
<path d="M18.0142 1.50394V11.9658C18.0142 12.235 17.8892 12.4241 17.6392 12.5331C17.5559 12.5651 17.4758 12.5812 17.3988 12.5812C17.2258 12.5812 17.0815 12.5203 16.9661 12.3985L13.091 8.52336V10.1196C13.091 10.8824 12.8202 11.5347 12.2785 12.0763C11.7368 12.618 11.0846 12.8889 10.3217 12.8889H3.55232C2.78948 12.8889 2.13722 12.618 1.59554 12.0763C1.05386 11.5347 0.78302 10.8824 0.78302 10.1196V3.35015C0.78302 2.58731 1.05386 1.93505 1.59554 1.39336C2.13722 0.851685 2.78948 0.580844 3.55232 0.580844H10.3217C11.0846 0.580844 11.7368 0.851685 12.2785 1.39336C12.8202 1.93505 13.091 2.58731 13.091 3.35015V4.93673L16.9661 1.07124C17.0815 0.949443 17.2258 0.888544 17.3988 0.888544C17.4758 0.888544 17.5559 0.904571 17.6392 0.936623C17.8892 1.0456 18.0142 1.23471 18.0142 1.50394Z" fill="white"/>
</svg>
